<svg width="15" height="9" viewBox="0 0 15 9" version="1.1" xmlns="http://www.w3.org/2000/svg" xmlns:xlink="http://www.w3.org/1999/xlink">
<title>Group 3 Copy 4</title>
<desc>Created using Figma</desc>
<g id="Canvas" transform="translate(2941 -1311)">
<g id="Group 3 Copy 4">
<g id="Group 2">
<g id="Line">
<use xlink:href="#path0_stroke" transform="translate(-2940 1314)" fill="#EA5E47"/>
</g>
<g id="Path 2">
<use xlink:href="#path1_stroke" transform="translate(-2931 1312)" fill="#EA5E47"/>
</g>
</g>
</g>
</g>
<defs>
<path id="path0_stroke" d="M 11.2778 1.66667L 11.7778 1.66667L 11.7778 0.666667L 11.2778 0.666667L 11.2778 1.66667ZM 0.278339 0.666667L -0.221661 0.666667L -0.221661 1.66667L 0.278339 1.66667L 0.278339 0.666667ZM 11.2778 0.666667L 0.278339 0.666667L 0.278339 1.66667L 11.2778 1.66667L 11.2778 0.666667Z"/>
<path id="path1_stroke" d="M 3.391 3.455L 3.74678 3.80632L 4.09264 3.45607L 3.74785 3.10476L 3.391 3.455ZM -0.356843 0.350233L 3.03416 3.80523L 3.74785 3.10476L 0.356843 -0.350233L -0.356843 0.350233ZM 3.03523 3.10368L -0.246777 6.42727L 0.464767 7.12991L 3.74678 3.80632L 3.03523 3.10368Z"/>
</defs>
</svg>
