<svg width="147" height="16" viewBox="0 0 147 16" version="1.1" xmlns="http://www.w3.org/2000/svg" xmlns:xlink="http://www.w3.org/1999/xlink">
<title>Page 1</title>
<desc>Created using Figma</desc>
<g id="Canvas" transform="translate(2864 -247)">
<g id="Page 1">
<g id="Fill 1">
<use xlink:href="#path0_fill" transform="translate(-2864 248.247)" fill="#FFFFFF"/>
</g>
<g id="Fill 3">
<use xlink:href="#path1_fill" transform="translate(-2851.43 250.229)" fill="#FFFFFF"/>
</g>
<g id="Fill 5">
<use xlink:href="#path2_fill" transform="translate(-2839.34 250.228)" fill="#FFFFFF"/>
</g>
<g id="Fill 7">
<use xlink:href="#path3_fill" transform="translate(-2825.96 250.229)" fill="#FFFFFF"/>
</g>
<g id="Group 11">
<mask id="mask0_outline" mask-type="alpha">
<g id="Clip 10">
<use xlink:href="#path4_fill" transform="translate(-2821.14 250.082)" fill="#FFFFFF"/>
</g>
</mask>
<g id="Fill 9" mask="url(#mask0_outline)">
<use xlink:href="#path5_fill" transform="translate(-2821.14 250.082)" fill="#FFFFFF"/>
</g>
</g>
<g id="Fill 12">
<use xlink:href="#path6_fill" transform="translate(-2800.83 250.082)" fill="#FFFFFF"/>
</g>
<g id="Fill 14">
<use xlink:href="#path7_fill" transform="translate(-2788.04 250.18)" fill="#FFFFFF"/>
</g>
<g id="Group 18">
<mask id="mask1_outline" mask-type="alpha">
<g id="Clip 17">
<use xlink:href="#path8_fill" transform="translate(-2780.65 250.082)" fill="#FFFFFF"/>
</g>
</mask>
<g id="Fill 16" mask="url(#mask1_outline)">
<use xlink:href="#path9_fill" transform="translate(-2780.65 250.082)" fill="#FFFFFF"/>
</g>
</g>
<g id="Group 21">
<mask id="mask2_outline" mask-type="alpha">
<g id="Clip 20">
<use xlink:href="#path10_fill" transform="translate(-2766.85 250.082)" fill="#FFFFFF"/>
</g>
</mask>
<g id="Fill 19" mask="url(#mask2_outline)">
<use xlink:href="#path11_fill" transform="translate(-2766.85 250.082)" fill="#FFFFFF"/>
</g>
</g>
<g id="Fill 22">
<use xlink:href="#path12_fill" transform="translate(-2755.03 247)" fill="#FFFFFF"/>
</g>
<g id="Fill 24">
<use xlink:href="#path3_fill" transform="translate(-2746.1 250.229)" fill="#FFFFFF"/>
</g>
<g id="Fill 26">
<use xlink:href="#path2_fill" transform="translate(-2741.99 250.228)" fill="#FFFFFF"/>
</g>
<g id="Group 30">
<mask id="mask3_outline" mask-type="alpha">
<g id="Clip 29">
<use xlink:href="#path13_fill" transform="translate(-2729.3 250.082)" fill="#FFFFFF"/>
</g>
</mask>
<g id="Fill 28" mask="url(#mask3_outline)">
<use xlink:href="#path9_fill" transform="translate(-2729.3 250.082)" fill="#FFFFFF"/>
</g>
</g>
</g>
</g>
<defs>
<path id="path0_fill" fill-rule="evenodd" d="M 8.61 14.113C 8.34 14.113 8.072 13.991 7.9 13.771L 3.792 8.634L 1.835 10.567L 1.835 13.184C 1.835 13.673 1.419 14.089 0.905 14.089C 0.416 14.089 0 13.673 0 13.184L 0 0.881C 0 0.416 0.416 0 0.954 0C 1.419 0 1.835 0.416 1.835 0.881L 1.835 8.414L 7.95 2.202C 8.096 2.054 8.316 1.957 8.512 1.957C 8.952 1.957 9.368 2.373 9.368 2.838C 9.368 3.033 9.295 3.228 9.148 3.376L 5.136 7.485L 9.319 12.646C 9.441 12.793 9.515 12.988 9.515 13.184C 9.515 13.599 9.172 14.113 8.61 14.113"/>
<path id="path1_fill" fill-rule="evenodd" d="M 8.879 12.107C 8.39 12.107 7.975 11.691 7.975 11.203L 7.975 10.297C 7.069 11.325 5.528 12.254 3.767 12.254C 1.297 12.254 0 11.055 0 8.487L 0 0.88C 0 0.416 0.416 0 0.954 0C 1.419 0 1.835 0.416 1.835 0.88L 1.835 7.924C 1.835 10.003 2.887 10.615 4.477 10.615C 5.92 10.615 7.289 9.784 7.975 8.83L 7.975 0.88C 7.975 0.416 8.39 0 8.928 0C 9.393 0 9.809 0.416 9.809 0.88L 9.809 11.203C 9.809 11.691 9.393 12.107 8.879 12.107"/>
<path id="path2_fill" fill-rule="evenodd" d="M 11.031 1.223L 6.873 11.252C 6.653 11.766 6.139 12.108 5.528 12.108L 5.504 12.108C 4.941 12.108 4.452 11.766 4.231 11.252L 0.073 1.223C 0.024 1.125 0 1.003 0 0.906C 0 0.441 0.391 0 0.929 0C 1.297 0 1.638 0.196 1.786 0.563L 5.552 9.833L 9.295 0.563C 9.441 0.221 9.784 0 10.151 0C 10.689 0 11.104 0.416 11.104 0.906C 11.104 1.003 11.08 1.125 11.031 1.223"/>
<path id="path3_fill" fill-rule="evenodd" d="M 0.905 12.107C 0.416 12.107 0 11.691 0 11.203L 0 0.88C 0 0.416 0.416 0 0.954 0C 1.419 0 1.835 0.416 1.835 0.88L 1.835 11.203C 1.835 11.691 1.419 12.107 0.905 12.107"/>
<path id="path4_fill" fill-rule="evenodd" d="M 11.693 12.4017L 0 12.4017L 0 0L 11.693 0L 11.693 12.4017Z"/>
<path id="path5_fill" fill-rule="evenodd" d="M 5.84694 1.63901C 3.32694 1.63901 1.90894 3.79101 1.90894 6.18901C 1.90894 8.61001 3.32694 10.762 5.84694 10.762C 8.36594 10.762 9.75994 8.61001 9.75994 6.18901C 9.75994 3.79101 8.36594 1.63901 5.84694 1.63901L 5.84694 1.63901ZM 5.847 12.402C 2.251 12.402 0 9.613 0 6.189C 0 2.764 2.251 0 5.847 0C 9.443 0 11.693 2.764 11.693 6.189C 11.693 9.613 9.443 12.402 5.847 12.402L 5.847 12.402Z"/>
<path id="path6_fill" fill-rule="evenodd" d="M 9.784 10.86C 8.879 11.789 7.68 12.401 5.894 12.401C 2.373 12.401 0 9.71 0 6.188C 0 2.69 2.373 0 5.894 0C 7.68 0 8.879 0.611 9.784 1.541C 9.906 1.687 9.979 1.858 9.979 2.054C 9.979 2.47 9.612 2.885 9.147 2.885C 8.903 2.885 8.683 2.788 8.512 2.617C 7.803 1.931 6.971 1.638 5.992 1.638C 3.473 1.638 1.908 3.571 1.908 6.188C 1.908 8.805 3.473 10.761 5.992 10.761C 6.971 10.761 7.803 10.444 8.512 9.759C 8.683 9.612 8.903 9.539 9.123 9.539C 9.563 9.539 9.979 9.881 9.979 10.346C 9.979 10.517 9.93 10.713 9.784 10.86"/>
<path id="path7_fill" fill-rule="evenodd" d="M 4.966 1.859C 3.767 1.932 2.617 2.47 1.835 3.644L 1.835 11.252C 1.835 11.74 1.419 12.156 0.905 12.156L 0.881 12.156C 0.392 12.131 0 11.74 0 11.252L 0 0.929C 0 0.464 0.416 0.048 0.954 0.048C 1.419 0.048 1.835 0.464 1.835 0.929L 1.835 2.103C 2.544 1.173 3.718 0 5.088 0C 5.528 0 5.92 0.367 5.92 0.856C 5.92 1.394 5.504 1.834 4.966 1.859"/>
<path id="path8_fill" fill-rule="evenodd" d="M 11.472 12.4018L 0 12.4018L 0 0L 11.472 0L 11.472 12.4018L 11.472 12.4018Z"/>
<path id="path9_fill" fill-rule="evenodd" d="M 5.79711 1.517C 3.27711 1.517 2.03011 3.645 1.93311 5.455L 9.68711 5.455C 9.66111 3.694 8.48711 1.517 5.79711 1.517L 5.79711 1.517ZM 10.469 6.8L 1.933 6.8C 2.079 9.026 3.645 10.885 6.189 10.885C 7.314 10.885 8.439 10.518 9.368 9.785C 9.49 9.71 9.637 9.662 9.784 9.662C 10.102 9.662 10.518 9.955 10.518 10.42C 10.518 11.692 7.46 12.402 6.017 12.402C 2.52 12.402 0 9.882 0 6.189C 0 2.764 2.446 0 5.821 0C 8.757 0 10.689 1.859 11.301 4.575C 11.374 4.941 11.472 5.381 11.472 5.797C 11.472 6.335 11.031 6.8 10.469 6.8L 10.469 6.8Z"/>
<path id="path10_fill" fill-rule="evenodd" d="M 0 12.4017L 9.882 12.4017L 9.882 0L 1.42109e-14 0L 1.42109e-14 12.4017L 0 12.4017Z"/>
<path id="path11_fill" fill-rule="evenodd" d="M 8.04703 7.38701C 7.33803 6.40801 6.09103 5.91901 4.79403 5.91901C 3.08203 5.91901 1.88403 6.99501 1.88403 8.51201C 1.88403 10.004 3.08203 11.08 4.79403 11.08C 6.09103 11.08 7.33803 10.591 8.04703 9.61301L 8.04703 7.38701ZM 8.952 12.254C 8.439 12.254 8.047 11.814 8.047 11.3L 8.047 10.762C 7.069 11.838 5.724 12.402 4.134 12.402C 2.128 12.402 0 11.056 0 8.488C 0 5.846 2.128 4.599 4.134 4.599C 5.748 4.599 7.094 5.113 8.047 6.213L 8.047 4.085C 8.047 2.495 6.776 1.59 5.064 1.59C 3.889 1.59 2.887 1.957 1.982 2.715C 1.835 2.837 1.639 2.91 1.468 2.91C 1.076 2.91 0.66 2.617 0.66 2.177C 0.66 1.982 0.734 1.785 0.905 1.639C 2.152 0.514 3.62 0 5.308 0C 7.803 0 9.882 1.125 9.882 3.987L 9.882 11.35C 9.882 11.838 9.466 12.254 8.952 12.254L 8.952 12.254Z"/>
<path id="path12_fill" fill-rule="evenodd" d="M 4.721 15.483C 2.985 15.483 2.104 14.48 2.104 12.718L 2.104 4.989L 0.783 4.989C 0.343 4.989 0 4.647 0 4.158C 0 3.717 0.343 3.375 0.783 3.375L 2.104 3.375L 2.104 0.88C 2.104 0.416 2.52 0 3.058 0C 3.523 0 3.939 0.416 3.939 0.88L 3.939 3.375L 5.7 3.375C 6.14 3.375 6.483 3.717 6.483 4.207C 6.483 4.647 6.14 4.989 5.7 4.989L 3.939 4.989L 3.939 12.328C 3.939 13.208 4.33 13.843 5.137 13.843C 5.455 13.843 5.823 13.672 6.116 13.672C 6.532 13.672 6.899 14.015 6.899 14.431C 6.899 15.213 5.774 15.483 4.721 15.483"/>
<path id="path13_fill" fill-rule="evenodd" d="M 11.4713 0L 11.4713 12.4018L 0 12.4018L 0 1.77636e-14L 11.4713 1.77636e-14L 11.4713 0Z"/>
</defs>
</svg>
