<svg width="50" height="50" viewBox="0 0 50 50" version="1.1" xmlns="http://www.w3.org/2000/svg" xmlns:xlink="http://www.w3.org/1999/xlink">
<title>Page 1</title>
<desc>Created using Figma</desc>
<g id="Canvas" transform="translate(4499 -4107)">
<g id="Page 1">
<mask id="mask0_outline" mask-type="alpha">
<g id="Clip 2">
<use xlink:href="#path0_fill" transform="translate(-4499 4107)" fill="#FFFFFF"/>
</g>
</mask>
<g id="Fill 1" mask="url(#mask0_outline)">
<use xlink:href="#path1_fill" transform="translate(-4499 4107)" fill="#FFFFFF"/>
</g>
</g>
</g>
<defs>
<path id="path0_fill" fill-rule="evenodd" d="M 49.921 24.9605L 49.921 0L 0 0L 0 24.9605L 0 49.9209L 49.921 49.9209L 49.921 24.9605L 49.921 24.9605Z"/>
<path id="path1_fill" fill-rule="evenodd" d="M 22.1066 39.1983L 16.1214 39.1983C 15.501 39.1983 14.9985 38.6816 14.9985 38.0446L 14.9985 30.1483C 14.9985 29.0501 16.3504 28.573 17.0072 29.439L 22.993 37.3353C 23.5671 38.0933 23.0411 39.1983 22.1066 39.1983L 22.1066 39.1983ZM 14.9985 11.8764C 14.9985 11.2393 15.501 10.7227 16.1214 10.7227L 21.9146 10.7227C 22.8492 10.7227 23.3751 11.8276 22.801 12.585L 17.0072 20.2288C 16.3504 21.0949 14.9985 20.6177 14.9985 19.5196L 14.9985 11.8764ZM 19.5253 23.7327L 28.8031 11.4932C 29.171 11.0074 29.7377 10.7228 30.337 10.7228L 35.6735 10.7228C 37.2926 10.7228 38.2031 12.6364 37.208 13.9488L 29.792 23.7327C 29.2444 24.4549 29.2444 25.4661 29.792 26.1883L 42.4253 42.7784C 47.0463 38.2481 49.921 31.9432 49.921 24.9605C 49.921 11.1753 38.7463 0 24.9605 0C 11.1753 0 0 11.1753 0 24.9605C 0 38.7457 11.1753 49.921 24.9605 49.921C 28.8179 49.921 32.4556 49.021 35.716 47.4586L 19.5253 26.1883C 18.9784 25.4661 18.9784 24.4549 19.5253 23.7327L 19.5253 23.7327Z"/>
</defs>
</svg>
